<svg xmlns="http://www.w3.org/2000/svg" viewBox="0 0 1024 1024" width="1024" height="1024">
  <rect width="1024" height="1024" rx="192" fill="#FAFAF7"/>
  <g transform="translate(140.2,766.7) scale(0.69973,-0.69973)">
    <path transform="translate(0,0)" fill="#17201D" d="M59 740H207V422H214Q233 468 269.0 498.0Q305 528 367 528Q410 528 445.5 512.0Q481 496 506.5 463.0Q532 430 546.5 379.0Q561 328 561 258Q561 188 546.5 137.0Q532 86 506.5 53.0Q481 20 445.5 4.0Q410 -12 367 -12Q305 -12 269.0 17.5Q233 47 214 94H207V0H59ZM303 103Q353 103 380.0 133.5Q407 164 407 218V298Q407 352 380.0 382.5Q353 413 303 413Q264 413 235.5 394.0Q207 375 207 334V182Q207 141 235.5 122.0Q264 103 303 103Z"/>
    <path transform="translate(600,0)" fill="#0E6A4E" d="M300 -12Q244 -12 219.5 12.5Q195 37 195 71V106Q195 140 219.5 164.5Q244 189 300 189Q356 189 380.5 164.5Q405 140 405 106V71Q405 37 380.5 12.5Q356 -12 300 -12Z"/>
  </g>
</svg>
