<svg xmlns="http://www.w3.org/2000/svg" viewBox="158 354 668 317" width="668" height="317">
  <g transform="translate(153.6,592.6) scale(0.29867,-0.29867)">
    <path transform="translate(0,0)" fill="#17201D" d="M69 740H197V425H204Q225 472 261.5 500.0Q298 528 358 528Q402 528 438.5 511.5Q475 495 501.0 461.5Q527 428 541.0 377.0Q555 326 555 258Q555 190 541.0 139.0Q527 88 501.0 54.5Q475 21 438.5 4.5Q402 -12 358 -12Q298 -12 261.5 16.0Q225 44 204 91H197V0H69ZM304 90Q360 90 390.5 124.0Q421 158 421 217V299Q421 358 390.5 392.0Q360 426 304 426Q260 426 228.5 404.5Q197 383 197 339V177Q197 133 228.5 111.5Q260 90 304 90Z"/>
    <path transform="translate(600,0)" fill="#17201D" d="M335 0Q261 0 226.0 39.0Q191 78 191 140V415H41V516H143Q174 516 187.0 528.5Q200 541 200 573V698H319V516H529V415H319V101H529V0Z"/>
    <path transform="translate(1200,0)" fill="#17201D" d="M69 516H197V425H204Q225 472 261.5 500.0Q298 528 358 528Q402 528 438.5 511.5Q475 495 501.0 461.5Q527 428 541.0 377.0Q555 326 555 258Q555 190 541.0 139.0Q527 88 501.0 54.5Q475 21 438.5 4.5Q402 -12 358 -12Q298 -12 261.5 16.0Q225 44 204 91H197V-200H69ZM304 90Q360 90 390.5 124.0Q421 158 421 217V299Q421 358 390.5 392.0Q360 426 304 426Q260 426 228.5 404.5Q197 383 197 339V177Q197 133 228.5 111.5Q260 90 304 90Z"/>
    <path transform="translate(1800,0)" fill="#0E6A4E" d="M300 -11Q248 -11 226.0 11.0Q204 33 204 65V95Q204 127 226.0 149.0Q248 171 300 171Q352 171 374.0 149.0Q396 127 396 95V65Q396 33 374.0 11.0Q352 -11 300 -11Z"/>
  </g>
</svg>
